#!OML:ASF F:\VICON\USERDATA\INSTALL\rory3\rory3.ASF
:FULLY-SPECIFIED
:DEGREES
155
root 0.544737 17.9776 -1.51408 -0.455085 4.01667 3.35553
lowerback 9.88091 -1.91167 -5.62491
upperback 0.18075 -3.1096 1.36409
thorax -4.9801 -1.38558 5.02962
lowerneck -16.4956 -3.43431 -1.95514
upperneck 23.1132 -4.383 0.321334
head 10.1467 -2.15824 -0.152283
rclavicle -6.02815e-014 -6.36111e-015
rhumerus -34.2859 -26.6131 -73.4685
rradius 21.8647
rwrist 8.48434
rhand -18.666 23.3725
rfingers 7.12502
rthumb 7.62751 -6.46999
lclavicle -6.02815e-014 -6.36111e-015
lhumerus -21.4488 -6.24649 82.1063
lradius 32.1198
lwrist 7.14743
lhand -29.1369 27.6865
lfingers 7.12502
lthumb -2.48396 57.6518
rfemur -27.9898 7.41392 13.8895
rtibia 14.6993
rfoot -6.67767 -16.1133
rtoes -12.4009
lfemur 13.4003 -1.39363 -26.7182
ltibia 16.1875
lfoot -13.7614 -3.90677
ltoes -13.2952
156
root 0.522037 17.9616 -1.34121 -0.519578 4.0843 3.28143
lowerback 10.0671 -1.89087 -5.57864
upperback 0.217216 -3.08513 1.38223
thorax -5.05057 -1.37238 5.02832
lowerneck -16.703 -3.45101 -1.924
upperneck 23.1768 -4.42047 0.355999
head 10.2095 -2.16685 -0.155045
rclavicle 1.4064e-014 7.15625e-015
rhumerus -34.4151 -26.6816 -73.4172
rradius 21.8543
rwrist 8.14316
rhand -18.9088 23.2112
rfingers 7.12502
rthumb 7.39319 -6.63964
lclavicle 1.4064e-014 7.15625e-015
lhumerus -21.2979 -6.2664 82.0651
lradius 32.4372
lwrist 6.80614
lhand -28.1865 31.1601
lfingers 7.12502
lthumb -1.56608 61.1341
rfemur -28.2802 6.0987 14.72
rtibia 16.1469
rfoot -5.94298 -15.2604
rtoes -12.1455
lfemur 13.7388 -1.89471 -26.5986
ltibia 16.4431
lfoot -13.2484 -4.23098
ltoes -13.1704
157
root 0.504296 17.9394 -1.16318 -0.568381 4.01159 3.23557
lowerback 10.116 -1.8308 -5.51806
upperback 0.326007 -2.99832 1.37887
thorax -4.9772 -1.33618 4.97814
lowerneck -16.7115 -3.39952 -1.80366
upperneck 22.9921 -4.37714 0.354257
head 10.1408 -2.13705 -0.167678
rclavicle -1.66482e-014 -3.97569e-016
rhumerus -34.4919 -26.9341 -73.3122
rradius 21.8515
rwrist 8.14091
rhand -19.4176 22.1881
rfingers 7.12502
rthumb 6.90204 -7.6794
lclavicle -1.66482e-014 -3.97569e-016
lhumerus -21.0884 -6.26475 82.0765
lradius 32.6564
lwrist 6.71463
lhand -27.0937 32.215
lfingers 7.12502
lthumb -0.51055 62.1942
rfemur -28.4729 5.33243 15.3358
rtibia 17.5231
rfoot -5.52584 -14.7909
rtoes -11.1687
lfemur 14.1114 -2.17479 -26.5215
ltibia 16.8439
lfoot -12.8327 -4.3982
ltoes -13.3259
158
root 0.491428 17.9144 -0.970954 -0.650208 3.76379 3.21803
lowerback 10.0945 -1.78461 -5.4906
upperback 0.35733 -2.93173 1.38039
thorax -4.94159 -1.306 4.95343
lowerneck -16.2771 -3.31006 -1.82692
upperneck 22.74 -4.26332 0.40865
head 9.9688 -2.08413 -0.118541
rclavicle 2.94698e-014 5.96354e-015
rhumerus -34.728 -27.2607 -73.0331
rradius 21.6256
rwrist 8.34298
rhand -19.1611 22.4742
rfingers 7.12502
rthumb 7.14966 -7.38504
lclavicle 2.94698e-014 5.96354e-015
lhumerus -21.2627 -6.20996 82.0868
lradius 32.8513
lwrist 6.90317
lhand -27.2473 29.1559
lfingers 7.12502
lthumb -0.658899 59.1347
rfemur -28.4808 4.92212 15.8178
rtibia 18.7999
rfoot -5.62829 -14.3038
rtoes -11.7411
lfemur 14.5966 -2.06273 -26.4603
ltibia 17.4045
lfoot -12.684 -4.21996
ltoes -15.9155
